<?xml version="1.0" encoding="utf-8"?>
<!-- Generator: Adobe Illustrator 24.0.1, SVG Export Plug-In . SVG Version: 6.00 Build 0)  -->
<svg version="1.1" id="Layer_1" xmlns="https://www.w3.org/2000/svg" xmlns:xlink="https://www.w3.org/1999/xlink" x="0px" y="0px"
	 viewBox="0 0 550.8 112.3" style="enable-background:new 0 0 550.8 112.3;" xml:space="preserve">
<style type="text/css">
	.st0{fill:#008A8C;}
</style>
<path class="st0" d="M231,50.8c-0.7,1.7-1.3,3.3-2,5c-5.7,14.7-11.4,29.3-17,44c-0.2,0.6-0.5,1.2-0.7,1.7c-0.6,1.3-1.5,2-3,1.9
	c-0.6,0-1.2,0-1.9,0c-2.4,0-3-0.4-3.9-2.6c-5.5-14.1-10.9-28.2-16.4-42.2c-1-2.6-2-5.1-3-7.7c-0.1,0-0.2,0-0.3,0
	c0,0.5-0.1,0.9-0.1,1.4c0,15.8,0,31.5,0,47.3c0,3-1,4-3.9,4c-4.3,0-8.6,0-12.9,0c-3.1,0-4-0.8-4-4c0-24.7,0-49.4,0-74.2
	c0-5.6,0-11.3,0-16.9c0-2.7,0.9-3.6,3.6-3.6c7.4,0,14.8,0,22.3,0c1.8,0,2.8,0.7,3.4,2.2c2.5,6.4,5,12.9,7.5,19.3
	c3.6,9.3,7.2,18.5,10.8,27.8c0.1,0.2,0.2,0.4,0.4,0.8c0.2-0.4,0.4-0.7,0.5-1c5.9-15.3,11.9-30.6,17.8-45.8c0.2-0.5,0.4-1.1,0.7-1.6
	c0.5-1.2,1.4-1.8,2.8-1.8c7.5,0,15.1,0,22.6,0c2.7,0,3.6,0.9,3.6,3.6c0,29.9,0,59.7,0,89.6c0,0.9,0,1.7,0,2.6c0,1.6-1.2,2.9-2.8,2.9
	c-6.9,0-13.9,0-20.8,0c-1.7,0-2.8-1.3-2.9-3c0-1.1,0-2.2,0-3.2c0-15,0-29.9,0-44.9c0-0.5,0-0.9,0-1.4
	C231.2,50.9,231.1,50.8,231,50.8z"/>
<path class="st0" d="M521.5,51.3c2.4,0.5,4.6,0.9,6.8,1.5c8.3,2.5,14.4,7.5,16.3,16.3c1.9,9,0.8,17.6-5.9,24.7
	c-4.2,4.4-9.5,6.8-15.3,8.3c-9.3,2.5-18.7,2.7-28.2,2.5c-5.9-0.1-11.7-0.4-17.5-2c-0.7-0.2-1.3-0.4-2-0.7c-3.2-1.3-3.8-2.2-3.8-5.7
	c0-27.5,0-55,0-82.5c0-0.2,0-0.5,0-0.7c-0.6-3.1,1.2-4.6,3.6-5.8c3.4-1.7,7.1-2.4,10.8-2.7c5.6-0.4,11.2-0.8,16.9-0.7
	c7.7,0.1,15.5,0.7,22.9,3.4c5.4,1.9,10.3,4.7,13,10c4.9,9.4,4.2,21.6-6.5,29c-3.1,2.2-6.5,3.9-10.2,4.8
	C522,51.1,521.8,51.2,521.5,51.3z M500.5,73.5c0,4.2,0,8.5,0,12.7c0,1.2,0.4,1.6,1.5,1.5c0.9,0,1.8,0.1,2.7-0.1
	c8.9-1.2,13.5-9.5,12.4-16.2c-1.1-7.4-8-12.9-15.4-12.1c-1.1,0.1-1.3,0.5-1.3,1.5C500.5,65,500.5,69.3,500.5,73.5z M502.4,18.8
	c-1.9,0-1.9,0-1.9,1.9c0,2,0,4.1,0,6.1c0,5.8,0,11.7,0,17.5c0,1.1,0.4,1.6,1.4,1.5c0.8-0.1,1.7-0.1,2.5-0.2c6.7-1,11.8-7.2,11.4-14
	C515.3,24.5,509.4,18.9,502.4,18.8z"/>
<path class="st0" d="M310.2,43.1c1.3-2.1,2.5-4.2,3.8-6.3c5.7-9.7,11.5-19.3,17.2-29c1.2-2.1,3-3.2,5.5-3.1c5.9,0.1,11.8,0,17.7,0.1
	c0.7,0,1.5,0.3,2.2,0.5c-0.2,0.8-0.3,1.7-0.7,2.4c-4.4,6.9-8.8,13.7-13.2,20.5c-3.8,5.9-7.5,11.7-11.3,17.5c-0.5,0.7-0.5,1.2-0.1,2
	c9.2,17.2,18.3,34.5,27.4,51.7c0.1,0.1,0.1,0.2,0.2,0.3c1.4,2.6,0.8,3.7-2.2,3.7c-7.6,0-15.3,0-22.9,0c-2.8,0-4.7-1.2-5.9-3.7
	c-5.6-11.7-11.2-23.4-16.8-35.1c-0.2-0.5-0.5-1-1.1-1.5c0,0.4-0.1,0.8-0.1,1.3c0,11.8,0,23.6,0,35.3c0,2.6-1.1,3.7-3.7,3.7
	c-7.1,0-14.2,0-21.3,0c-2.4,0-3.5-1.1-3.5-3.5c0-30.6,0-61.2,0-91.8c0-2.3,1-3.3,3.3-3.3c7.3,0,14.5,0,21.8,0c2.3,0,3.3,1.1,3.3,3.3
	c0,11.2,0,22.3,0,33.5c0,0.5,0,1,0,1.4C309.9,43.1,310,43.1,310.2,43.1z"/>
<path class="st0" d="M78,32.2c-2.4-1.1-4.7-2.1-7.1-3.1c-6.9-2.7-14-4.4-21.4-5.3c-4.1-0.5-8.3-0.9-12.3,0.1c-2,0.5-4,1.2-5.7,2.2
	c-2.8,1.6-3.8,4.4-3.6,7.5c0.2,3.2,1.8,5.7,4.9,6.7c3.2,1,6.5,1.7,9.8,2.3c7.8,1.2,15.6,2.3,22.8,5.5C72.4,51.2,78,55.7,81,63
	c1.9,4.7,2.4,9.6,2,14.6c-0.3,4.1-1.1,8-2.9,11.7c-3.2,6.7-8.7,10.8-15.5,13.4c-5.5,2.1-11.2,3.1-17,3.2c-5.3,0.1-10.7,0.1-16-0.3
	c-8.2-0.7-16.2-2.4-24-4.8c-0.4-0.1-0.9-0.7-0.9-1.1C6.2,97,6,94.2,5.8,91.5C5.5,87.2,5.3,82.9,5,78.6c0-0.4,0-0.7,0-1.3
	c2.1,0.8,4.1,1.6,6.1,2.3c7.7,2.8,15.5,5.2,23.6,6.3c5.7,0.7,11.4,0.7,17-0.9c2.9-0.8,5.3-2.3,6.1-5.4c1.1-4.2-0.4-7.9-4.4-9.7
	c-3.3-1.5-6.8-2.6-10.3-3.6c-6-1.6-12.1-2.8-18-4.6s-11.3-4.6-15.3-9.5c-3.2-3.8-4.9-8.1-5.5-13c-0.5-4.3-0.5-8.6,0.9-12.8
	c2.3-7.1,7.3-11.8,13.8-15.2C24.4,8.3,30.2,6.8,36.3,6C43,5.2,49.7,5.5,56.4,6.2c6.6,0.7,13.1,2,19.5,3.5c1.3,0.3,1.8,0.8,1.8,2.2
	c0,6.4,0.2,12.8,0.3,19.2C78.1,31.5,78,31.8,78,32.2z"/>
<path class="st0" d="M439.1,103.4c-3.8,0-7.5,0-11.3,0c-2.5,0-4-1.1-4.6-3.5c-1-3.3-1.9-6.7-2.8-10c-0.2-0.9-0.6-1.2-1.5-1.2
	c-7.8,0-15.5,0-23.3,0c-0.9,0-1.2,0.3-1.5,1.1c-0.9,3.3-1.9,6.6-2.9,9.9c-0.8,2.6-2.2,3.7-4.9,3.7c-4.6,0-9.3,0-13.9,0
	c-2.8,0-3.4-0.9-2.6-3.6c5.9-17.8,11.7-35.5,17.6-53.3c4.2-12.7,8.4-25.5,12.6-38.2c0.7-2.1,2.1-3.8,5-3.7c4.6,0.1,9.1,0,13.7,0
	c2.6,0,4,1,4.8,3.5c5.1,15.8,10.1,31.5,15.2,47.3c4.7,14.8,9.5,29.5,14.2,44.3c0.8,2.6,0.1,3.6-2.6,3.6
	C446.6,103.5,442.9,103.5,439.1,103.4C439.1,103.5,439.1,103.4,439.1,103.4z M415.6,73.4c-2.7-9.5-5.3-18.8-8-28.1
	c-0.1,0-0.3,0-0.4,0c-2.7,9.3-5.5,18.6-8.3,28.1C404.6,73.4,410,73.4,415.6,73.4z"/>
<path class="st0" d="M139.3,54.1c0,15.1,0,30.2,0,45.3c0,3-1,4-4,4c-7.4,0-14.8,0-22.1,0c-2.7,0-3.8-1.1-3.8-3.8
	c0-30.4,0-60.8,0-91.2c0-2.2,0.8-3.8,3.8-3.8c7.5,0.1,14.9,0,22.4,0c2.8,0,3.8,1,3.8,3.7C139.3,23.7,139.3,38.9,139.3,54.1z"/>
</svg>
